# xmcd CD database file
#
# Track frame offsets:
#	150
#	42964
#	88178
#	132481
#	180806
#
# Disc length: 2963 seconds
#
# Revision: 0
# Processed by: cddbd v1.5.2PL0 Copyright (c) Steve Scherf et al.
# Submitted via: CDex 1.51
#
DISCID=390b9105
DTITLE=Gomer Edwin Evans - Body Music 1
DYEAR=2001
DGENRE=New Age
TTITLE0=Movements
TTITLE1=Touch Of Music
TTITLE2=Fingertips
TTITLE3=The Snowflakes
TTITLE4=Body Waves
EXTD=YEAR: 2001
EXTT0=
EXTT1=
EXTT2=
EXTT3=
EXTT4=
PLAYORDER=
